HIERARCHY
ROOT pelvis
{
  OFFSET 0 100 0
  CHANNELS 6 Xposition Yposition Zposition Zrotation Xrotation Yrotation
  JOINT pelvis_right_femur
  {
    OFFSET -10.78128 -3.44521 -0.5502486
    CHANNELS 3 Zrotation Xrotation Yrotation
    JOINT right_femur_tibia
    {
      OFFSET -0.8047443 -44.0398 -0.1307829
      CHANNELS 3 Zrotation Xrotation Yrotation
      JOINT right_tibia_foot
      {
        OFFSET 3.006224 -47.83518 -5
        CHANNELS 3 Zrotation Xrotation Yrotation
        End Site
        {
          OFFSET 0 -5 15
        }
      }
    }
  }
  JOINT pelvis_left_femur
  {
    OFFSET 10.78128 -3.44521 -0.5502486
    CHANNELS 3 Zrotation Xrotation Yrotation
    JOINT left_femur_tibia
    {
      OFFSET 0.8047443 -44.0398 -0.1307829
      CHANNELS 3 Zrotation Xrotation Yrotation
      JOINT left_tibia_foot
      {
        OFFSET -4.370144 -48.10324 -4.275266
        CHANNELS 3 Zrotation Xrotation Yrotation
        End Site
        {
          OFFSET 0 -5 15
        }
      }
    }
  }
  JOINT pelvis_spine1
  {
    OFFSET 0 6.468898 -3.129235
    CHANNELS 3 Zrotation Xrotation Yrotation
    JOINT spine1
    {
      OFFSET 0 23.15396 4.99043
      CHANNELS 3 Zrotation Xrotation Yrotation
      JOINT spine2
      {
        OFFSET 0 20.79997 -5.064912
        CHANNELS 3 Zrotation Xrotation Yrotation
        JOINT neck
        {
          OFFSET 0 14.38658 9.616178
          CHANNELS 3 Zrotation Xrotation Yrotation
          End Site
          {
            OFFSET 0 20 0
          }
        }
      }
      JOINT right_manubrium
      {
        OFFSET -5.722621 16.35077 3.967754
        CHANNELS 3 Zrotation Xrotation Yrotation
        JOINT right_clavicle
        {
          OFFSET -13.16364 1.694482 -4.693211
          CHANNELS 3 Zrotation Xrotation Yrotation
          JOINT right_humerus
          {
            OFFSET -28.5034 -0.3100689 -2.792744
            CHANNELS 3 Zrotation Xrotation Yrotation
            JOINT right_radius
            {
              OFFSET -25.15693 0.02248979 -1.271978
              CHANNELS 3 Zrotation Xrotation Yrotation
              End Site
              {
                OFFSET -15 0 0
              }
            }
          }
        }
      }
      JOINT left_manubrium
      {
        OFFSET 5.722621 16.35077 3.967754
        CHANNELS 3 Zrotation Xrotation Yrotation
        JOINT left_clavicle
        {
          OFFSET 13.16364 1.694482 -4.693211
          CHANNELS 3 Zrotation Xrotation Yrotation
          JOINT left_humerus
          {
            OFFSET 29.39168 -1.063119 -2.237045
            CHANNELS 3 Zrotation Xrotation Yrotation
            JOINT left_radius
            {
              OFFSET 24.59957 -0.9528479 0.9047498
              CHANNELS 3 Zrotation Xrotation Yrotation
              End Site
              {
                OFFSET 15 -0 -0
              }
            }
          }
        }
      }
    }
  }
}
MOTION
Frames: 11
Frame Time: 0.0416666666667
1503.524 104.758 2651.049 5.893146 -3.859194 50.55603 4.491665 10.50959 5.155387 -0 12.39272 -0 -0.4705635 -14.511 -3.577933 0.8936856 -21.97298 -2.926222 -0 38.16664 -0 -6.686112 -6.765338 19.19369 -0.8321387 1.720157 8.0471 -0.03990973 10.3708 -3.768329 1.970006 22.3623 4.816066 2.098922 -17.09986 6.262378 2.193984 -20.30933 11.93111 81.12877 26.16378 -8.097344 -0 0 20.28348 -22.48134 11.91217 13.00985 4.14503 -17.16936 -2.905636 -91.34126 23.53164 21.65817 0 0 -15.91567 -1.264061 5.695473 15.75587
1508.498 103.8492 2654.436 4.94411 -3.598238 49.8556 4.209985 13.41417 4.693034 -0 12.32518 -0 -0.007220103 -16.14616 -2.500152 1.962978 -25.35971 -2.248437 -0 29.06407 -0 -6.519282 -6.757398 19.41239 -0.5716354 1.477428 8.255651 -0.3352229 9.956259 -3.476225 1.819218 22.05237 4.993652 2.044676 -17.48371 6.349964 1.681065 -21.49882 11.70936 79.87399 25.99135 -5.907152 -0 0 22.78969 -23.64934 11.59875 14.05266 4.181402 -16.46696 -2.701816 -92.32461 23.43763 23.92223 0 0 -14.4653 -1.517601 5.604351 16.3159
1513.824 102.7923 2657.923 4.210349 -3.245777 49.20969 3.568695 15.81832 4.403817 -0 13.82484 -0 0.5443758 -16.4724 -1.668541 2.28913 -27.06222 -2.112115 -0 22.64866 -0 -6.303077 -6.65963 19.29074 -0.5934098 0.9789882 8.459079 -0.5318892 9.641835 -3.337392 1.743197 21.74844 5.145116 2.043827 -17.90913 6.461064 1.350049 -22.21795 11.45732 79.12568 25.87327 -4.575934 -0 0 24.36076 -24.71525 11.39256 14.86013 4.087568 -15.894 -2.517962 -92.93762 23.27417 25.58477 0 0 -13.06487 -1.61622 5.560325 16.61896
1519.546 101.8494 2661.55 4.047018 -2.864247 48.67965 2.536126 17.61085 4.386856 -0 17.35554 -0 1.266936 -15.0906 -1.29921 1.63883 -27.17198 -2.634697 -0 19.64728 -0 -5.949328 -6.755441 19.05793 -1.019964 0.3752153 8.700205 -0.6990316 9.511045 -3.24059 1.782488 21.51497 5.22835 2.112247 -18.15544 6.564383 1.270694 -22.41508 11.22822 78.922 25.66728 -4.084 -0 0 24.98872 -25.55497 11.25569 15.32805 3.915448 -15.42311 -2.415321 -93.18892 23.06466 26.54216 0 0 -11.74652 -1.693049 5.412829 16.73727
1525.617 101.2561 2665.301 4.502359 -2.539382 48.36342 1.287751 18.53124 4.591091 -0 23.03713 -0 2.119544 -12.16709 -1.49293 0.175686 -25.87021 -3.677133 -0 19.4516 -0 -5.493495 -7.193151 18.82379 -1.755069 -0.187011 8.900785 -0.8904342 9.564179 -3.141549 1.906218 21.39054 5.250271 2.215397 -18.13883 6.651324 1.424401 -22.17101 11.04688 79.25708 25.33575 -4.304834 -0 0 24.83824 -26.06091 11.14827 15.44493 3.705164 -15.03993 -2.440439 -93.14696 22.91389 26.86794 0 0 -10.62826 -1.871594 5.121031 16.86116
1531.897 101.1837 2669.11 5.355593 -2.33335 48.3699 0.1071142 18.22034 4.852278 -0 30.51288 -0 2.91953 -8.274042 -2.19845 -1.673125 -23.35261 -4.939442 -0 20.78418 -0 -5.00088 -7.958357 18.58239 -2.581684 -0.6045108 8.919739 -1.110346 9.753552 -3.087292 2.039486 21.38669 5.258502 2.307172 -17.93137 6.733776 1.747121 -21.62102 10.91833 80.06948 25.0273 -5.096661 -0 0 24.07201 -26.18958 11.07586 15.26925 3.479902 -14.80378 -2.606511 -92.84286 22.92249 26.65101 0 0 -9.900134 -2.123768 4.797987 17.07743
1538.184 101.6987 2672.874 6.276858 -2.270762 48.77376 -0.736375 16.33234 4.999563 -0 38.95704 -0 3.422198 -4.123284 -3.252637 -3.44229 -19.81755 -6.119628 -0 22.35952 -0 -4.495455 -8.957336 18.2875 -3.280126 -0.815582 8.627409 -1.308582 10.02769 -3.181912 2.108233 21.48868 5.309177 2.355354 -17.68597 6.832185 2.166425 -20.89629 10.84374 81.25706 24.96806 -6.349616 -0 0 22.79862 -25.96734 11.08244 14.89414 3.257353 -14.82425 -2.900155 -92.24829 23.12366 25.90513 0 0 -9.743101 -2.291907 4.621798 17.31047
1544.267 102.7344 2676.48 6.971197 -2.35423 49.57885 -1.078652 12.65121 4.944888 -0 47.14269 -0 3.428716 -0.4076593 -4.447486 -4.783204 -15.47926 -7.017608 -0 23.20791 -0 -3.963115 -10.1056 17.90511 -3.695889 -0.7878586 7.955037 -1.39739 10.34563 -3.532653 2.068308 21.65916 5.439823 2.344576 -17.54545 6.964477 2.608982 -20.10199 10.82404 82.70011 25.2971 -7.984209 -0 0 21.11661 -25.46635 11.21048 14.42008 3.065212 -15.198 -3.293199 -91.31288 23.4663 24.57204 0 0 -10.26005 -2.197372 4.717021 17.38776
1549.975 104.0869 2679.838 7.259123 -2.572815 50.70624 -0.9068483 7.204061 4.703836 -0 53.52695 -0 2.872396 2.254633 -5.594807 -5.524076 -10.57605 -7.560394 -0 22.75368 -0 -3.392047 -11.3724 17.42116 -3.769391 -0.521108 6.919445 -1.278142 10.66325 -4.203935 1.914872 21.84657 5.655924 2.271628 -17.58053 7.137609 2.99262 -19.31045 10.85156 84.26779 25.96782 -9.924085 -0 0 19.16182 -24.78121 11.46134 13.93918 2.952755 -15.95754 -3.745692 -90.00682 23.8277 22.56311 0 0 -11.45853 -1.733308 5.078069 17.12094
1555.231 105.444 2682.912 7.111419 -2.878575 52.00801 -0.3665569 0.3800289 4.340859 -0 56.4428 -0 1.870671 3.385412 -6.577099 -5.683218 -5.370071 -7.779826 -0 20.84213 -0 -2.812088 -12.78219 16.82649 -3.556011 -0.06622581 5.63511 -0.8780187 10.91244 -5.181752 1.681092 21.99997 5.927539 2.144651 -17.76064 7.34049 3.22479 -18.55244 10.89774 85.81001 26.75028 -12.06975 -0 0 17.10872 -24.01713 11.77725 13.52162 2.991894 -17.0477 -4.202108 -88.35121 24.04781 19.81603 0 0 -13.2783 -0.9194229 5.556933 16.37529
1560.074 106.4503 2685.751 6.650777 -3.147205 53.30694 0.2560395 -7.003711 3.873058 -0 54.56428 -0 0.7159855 2.800693 -7.363961 -5.461542 -0.138368 -7.775222 -0 17.79352 -0 -2.317273 -14.3803 16.10563 -3.231593 0.4566089 4.30911 -0.2008959 10.9956 -6.347993 1.430496 22.0901 6.195436 1.987923 -17.95714 7.541207 3.224025 -17.80624 10.90739 87.16679 27.33623 -14.29651 -0 0 15.12202 -23.27883 12.06084 13.19185 3.260047 -18.33116 -4.592179 -86.43917 23.9969 16.37122 0 0 -15.63891 0.07521885 5.935908 15.14451
